<svg viewBox="0 0 40 30" xmlns="http://www.w3.org/2000/svg">
  <!-- Red stripe on top -->
  <rect width="40" height="15" fill="#FF0000"/>
  <!-- White stripe on bottom -->
  <rect y="15" width="40" height="15" fill="#FFFFFF"/>
  <!-- Crescent moon in red area -->
  <circle cx="12" cy="8" r="3" fill="#FFFFFF"/>
  <circle cx="14" cy="8" r="2.8" fill="#FF0000"/>
  <!-- Stars in white area -->
  <polygon points="8,20 9,23 12.5,23 10,25.5 11,29 8,26.5 5,29 6,25.5 3.5,23 7,23" fill="#FF0000"/>
  <polygon points="18,20 19,22.5 21.5,22.5 19.5,24 20.5,26.5 18,25 15.5,26.5 16.5,24 14.5,22.5 17,22.5" fill="#FF0000"/>
  <polygon points="28,20 29,22.5 31.5,22.5 29.5,24 30.5,26.5 28,25 25.5,26.5 26.5,24 24.5,22.5 27,22.5" fill="#FF0000"/>
  <polygon points="13,26 14,28 16,28 14.5,29.5 15,31.5 13,30.5 11,31.5 11.5,29.5 10,28 12,28" fill="#FF0000"/>
  <polygon points="23,26 24,28 26,28 24.5,29.5 25,31.5 23,30.5 21,31.5 21.5,29.5 20,28 22,28" fill="#FF0000"/>
</svg>